# xmcd
#
# Track frame offsets:
#  150
#  22962
#  48536
#  63466
#  83097
#  111495
#  138391
#  154235
#  165537
#
# Disc length: 2383 seconds
#
# Revision: 0
# Processed by: cddbd v1.5.1PL2 Copyright (c) Steve Scherf et al.
# Submitted via: Collectorz.com_Music_Collector 6.9
#
DISCID=74094d09
DTITLE=Robert Earl Keen - Morning Becomes Eclectic - Kcrw Studios - 25/05/1995
DYEAR=1995
DGENRE=
TTITLE0=Gringo Honymoon
TTITLE1=Interview
TTITLE2=No Kinda Dancer
TTITLE3=Interview
TTITLE4=The Front Porch Song
TTITLE5=Interview
TTITLE6=I'm Coming Home
TTITLE7=Interview
TTITLE8=Snowin' On Raton
EXTD=
EXTT0=
EXTT1=
EXTT2=
EXTT3=
EXTT4=
EXTT5=
EXTT6=
EXTT7=
EXTT8=
PLAYORDER=
